<?xml version="1.0" encoding="utf-8"?>
<!-- Generator: Adobe Illustrator 16.0.4, SVG Export Plug-In . SVG Version: 6.00 Build 0)  -->
<!DOCTYPE svg PUBLIC "-//W3C//DTD SVG 1.1//EN" "http://www.w3.org/Graphics/SVG/1.1/DTD/svg11.dtd">
<svg version="1.1" id="Layer_1" xmlns="http://www.w3.org/2000/svg" xmlns:xlink="http://www.w3.org/1999/xlink" x="0px" y="0px"
	 width="38px" height="38px" viewBox="155.024 155.008 38 38" enable-background="new 155.024 155.008 38 38" xml:space="preserve">
<path fill="#034694" d="M159.396,164.084c0.144-0.209,0.291-0.416,0.438-0.617c3.233-4.379,8.439-7.219,14.312-7.219
	c5.493,0,10.403,2.484,13.661,6.391c0.104,0.123,0.206,0.252,0.305,0.377c0.078,0-0.367,0.105-0.748,0.297
	c-0.391,0.193-0.913,0.308-1.533,0.85c-0.621,0.545-1.201,1.312-1.852,2.369c-0.654,1.064-1.381,2.69-2.031,3.94
	c-0.65,1.242-1.088,2.437-1.85,3.474c-0.761,1.034-1.746,2.104-2.676,2.68c-0.933,0.572-1.803,0.834-2.857,0.725
	c-1.059-0.117-2.373-0.754-3.424-1.394c-1.049-0.641-2.09-1.706-2.815-2.417c-0.724-0.707-0.843-0.95-1.503-1.795
	c-0.666-0.85-1.617-2.257-2.447-3.248c-0.83-0.984-1.66-1.875-2.492-2.615c-0.832-0.737-1.639-1.316-2.461-1.771L159.396,164.084z"
	/>
<path fill="#0098D7" d="M189.903,166.113c1.204,2.389,1.882,5.086,1.882,7.944c0,9.78-7.951,17.71-17.76,17.71
	c-9.807,0-17.762-7.93-17.762-17.71c0-1.569,0.207-3.085,0.588-4.532c0,0,0.802,0.309,1.621,0.935
	c0.818,0.622,0.768,0.735,1.555,1.583c0.785,0.843,0.51,0.766,1.586,1.795s1.191,1.301,2.719,2.324
	c1.524,1.018,1.713,1.105,3.387,1.758c1.677,0.649,1.729,0.605,3.318,0.844c0.996,0.059,2,0.115,2.999,0.176
	c-0.599,0.426-0.981,0.59-1.94,1.021c-0.963,0.434-0.938,0.379-1.908,0.703c-0.971,0.326-1.342,0.422-1.977,0.602h0.07
	c0.036,0.176,0.068,0.261,0.637,0.455c0.564,0.193,0.627,0.344,1.622,0.318c1-0.029,0.837,0.176,2.366-0.42
	c1.524-0.602,2.117-1.218,3.74-1.977c1.625-0.756,1.351-0.703,2.753-1.055c1.403-0.352,1.907-0.352,2.858-0.352v-0.033
	c0.068-0.213,0.045-0.355-0.246-0.564c-0.291-0.213-0.221-0.238-0.92-0.284c-0.697-0.044-1.172,0.063-1.869,0.108
	c-0.697,0.043-0.581,0.076-0.916,0.068c-0.153-0.035-0.309-0.068-0.458-0.105c0.353-0.033,0.587-0.129,1.444-0.561
	c0.855-0.434,0.865-0.4,1.977-1.162c1.113-0.77,1.164-0.626,2.473-1.9c1.305-1.276,1.623-1.815,2.752-3.203
	c1.128-1.393,0.9-1.214,1.764-2.357C189.123,167.096,189.337,166.85,189.903,166.113"/>
<path fill="#FFFFFF" d="M188.111,163.014c-0.145,0.049-0.51,0.169-0.748,0.287c-0.391,0.195-0.913,0.309-1.533,0.851
	c-0.621,0.546-1.201,1.312-1.852,2.37c-0.654,1.062-1.381,2.691-2.031,3.939c-0.65,1.242-1.088,2.436-1.85,3.475
	c-0.761,1.033-1.746,2.103-2.676,2.678c-0.933,0.572-1.803,0.835-2.857,0.726c-1.059-0.117-2.373-0.755-3.424-1.392
	c-1.049-0.643-2.09-1.709-2.815-2.418c-0.724-0.707-0.843-0.949-1.503-1.796c-0.666-0.849-1.617-2.258-2.447-3.247
	c-0.83-0.986-1.66-1.875-2.492-2.616c-0.832-0.737-1.639-1.315-2.461-1.771l-0.02-0.02c-1.113,1.646-1.955,3.492-2.463,5.471
	c0.222,0.094,0.867,0.39,1.533,0.898c0.818,0.623,0.768,0.736,1.555,1.584c0.785,0.842,0.51,0.766,1.587,1.795
	c1.075,1.027,1.19,1.301,2.718,2.322c1.524,1.018,1.713,1.107,3.387,1.76c1.677,0.648,1.729,0.604,3.318,0.843
	c0.996,0.058,2,0.117,2.999,0.176c-0.599,0.426-0.981,0.59-1.94,1.022c-0.963,0.432-0.938,0.377-1.908,0.703s-1.342,0.422-1.977,0.6
	h0.07c0.036,0.178,0.068,0.262,0.637,0.455c0.564,0.195,0.627,0.346,1.622,0.318c1-0.027,0.837,0.178,2.366-0.42
	c1.525-0.602,2.117-1.217,3.74-1.975c1.625-0.756,1.351-0.705,2.753-1.057c1.403-0.352,1.907-0.352,2.858-0.352v-0.033
	c0.068-0.213,0.045-0.355-0.246-0.564c-0.291-0.213-0.221-0.238-0.92-0.281c-0.697-0.045-1.172,0.061-1.869,0.105
	s-0.581,0.078-0.916,0.068c-0.153-0.035-0.309-0.068-0.458-0.105c0.353-0.031,0.587-0.129,1.444-0.561
	c0.855-0.432,0.865-0.398,1.977-1.162c1.113-0.768,1.164-0.625,2.473-1.9c1.305-1.275,1.623-1.814,2.752-3.203
	c1.128-1.393,0.9-1.213,1.764-2.354c0.863-1.147,1.076-1.394,1.642-2.13C189.578,165.322,188.709,163.814,188.111,163.014z"/>
<path fill="#FFFFFF" d="M166.324,168.152v-4.477h2.332c0.332,0,0.6,0.268,0.6,0.598v3.879h-0.979v-3.431
	c0-0.085-0.066-0.151-0.146-0.151h-0.68h-0.002c-0.082,0-0.148,0.066-0.148,0.151v3.431H166.324z"/>
<path fill="#FFFFFF" d="M176.094,165.316v-0.595c0-0.085-0.066-0.151-0.151-0.151h-0.69c-0.084,0-0.154,0.066-0.154,0.151v0.595
	c0,0.084,0.07,0.15,0.154,0.15h0.69C176.027,165.467,176.094,165.401,176.094,165.316 M174.1,168.152v-3.879
	c0-0.33,0.275-0.598,0.615-0.598h1.775c0.34,0,0.615,0.268,0.615,0.598v3.879h-1.012v-1.641c0-0.084-0.066-0.15-0.15-0.15h-0.691
	c-0.084,0-0.154,0.066-0.154,0.15v1.641H174.1z"/>
<path fill="#FFFFFF" d="M180.039,165.316v-0.595c0-0.085-0.07-0.151-0.154-0.151H179.2c-0.085,0-0.149,0.066-0.149,0.151v0.595
	c0,0.084,0.064,0.15,0.149,0.15h0.685C179.969,165.467,180.039,165.401,180.039,165.316 M178.059,168.152v-3.879
	c0-0.33,0.273-0.598,0.607-0.598h1.752c0.337,0,0.61,0.268,0.61,0.598v3.879h-0.989v-1.641c0-0.084-0.07-0.15-0.154-0.15H179.2
	c-0.085,0-0.149,0.066-0.149,0.15v1.641H178.059z"/>
<path fill="#FFFFFF" d="M172.613,163.676h-1.705c-0.326,0-0.592,0.268-0.592,0.594v0.004v3.275c0,0.325,0.266,0.594,0.592,0.594l0,0
	h1.705c0.326,0,0.591-0.269,0.591-0.594v-0.006v-3.273C173.205,163.943,172.939,163.676,172.613,163.676z M172.242,167.1
	c0,0.082-0.066,0.146-0.148,0.146h-0.666c-0.082,0-0.146-0.064-0.146-0.146v-2.381c0-0.082,0.064-0.15,0.146-0.15h0.666
	c0.082,0,0.148,0.068,0.148,0.15V167.1z"/>
</svg>
