<?xml version="1.0" encoding="utf-8"?>
<!-- Generator: Adobe Illustrator 16.0.4, SVG Export Plug-In . SVG Version: 6.00 Build 0)  -->
<!DOCTYPE svg PUBLIC "-//W3C//DTD SVG 1.1//EN" "http://www.w3.org/Graphics/SVG/1.1/DTD/svg11.dtd">
<svg version="1.1" id="Layer_1" xmlns="http://www.w3.org/2000/svg" xmlns:xlink="http://www.w3.org/1999/xlink" x="0px" y="0px"
	 width="48px" height="48px" viewBox="150.023 150.006 48 48" enable-background="new 150.023 150.006 48 48" xml:space="preserve">
<path fill="#034694" d="M155.74,161.604c0.179-0.261,0.363-0.521,0.547-0.773c4.041-5.474,10.549-9.023,17.889-9.023
	c6.867,0,13.003,3.105,17.076,7.988c0.129,0.155,0.258,0.316,0.382,0.471c0.097,0-0.46,0.133-0.937,0.371
	c-0.487,0.243-1.14,0.385-1.916,1.062c-0.776,0.683-1.502,1.641-2.314,2.963c-0.818,1.33-1.727,3.363-2.54,4.925
	c-0.813,1.553-1.359,3.045-2.311,4.342c-0.951,1.292-2.182,2.629-3.344,3.349c-1.167,0.715-2.255,1.043-3.573,0.906
	c-1.322-0.146-2.967-0.943-4.28-1.741c-1.31-0.802-2.613-2.134-3.519-3.022c-0.904-0.883-1.052-1.187-1.878-2.244
	c-0.832-1.062-2.021-2.821-3.06-4.059c-1.037-1.23-2.076-2.344-3.114-3.27c-1.042-0.921-2.048-1.645-3.077-2.213L155.74,161.604z"/>
<path fill="#0098D7" d="M193.873,164.141c1.506,2.985,2.351,6.357,2.351,9.929c0,12.226-9.938,22.137-22.198,22.137
	c-12.258,0-22.202-9.911-22.202-22.137c0-1.96,0.258-3.856,0.735-5.665c0,0,1.002,0.385,2.025,1.168
	c1.024,0.779,0.96,0.92,1.943,1.979c0.982,1.054,0.639,0.957,1.984,2.244s1.488,1.626,3.398,2.904
	c1.906,1.273,2.141,1.383,4.234,2.199c2.096,0.811,2.16,0.755,4.148,1.053c1.245,0.074,2.499,0.146,3.748,0.221
	c-0.749,0.531-1.227,0.736-2.426,1.277c-1.203,0.541-1.171,0.473-2.384,0.879c-1.213,0.408-1.677,0.527-2.471,0.752h0.087
	c0.046,0.22,0.087,0.325,0.795,0.568c0.707,0.242,0.785,0.43,2.029,0.398c1.25-0.037,1.047,0.221,2.958-0.526
	c1.905-0.751,2.646-1.521,4.676-2.47c2.03-0.943,1.687-0.879,3.44-1.318c1.755-0.439,2.384-0.439,3.573-0.439v-0.042
	c0.087-0.266,0.056-0.444-0.308-0.706c-0.363-0.266-0.275-0.297-1.148-0.354c-0.873-0.055-1.465,0.079-2.338,0.134
	c-0.872,0.054-0.726,0.096-1.144,0.087c-0.193-0.045-0.386-0.087-0.574-0.133c0.441-0.041,0.735-0.16,1.805-0.701
	c1.07-0.541,1.083-0.499,2.471-1.451c1.392-0.962,1.456-0.783,3.092-2.377c1.63-1.595,2.029-2.268,3.44-4.004
	c1.41-1.74,1.125-1.516,2.204-2.945C192.898,165.367,193.165,165.061,193.873,164.141"/>
<path fill="#FFFFFF" d="M191.634,160.266c-0.181,0.061-0.638,0.21-0.937,0.359c-0.487,0.243-1.14,0.385-1.916,1.062
	c-0.776,0.682-1.502,1.64-2.314,2.963c-0.818,1.329-1.727,3.363-2.54,4.924c-0.813,1.553-1.359,3.045-2.311,4.343
	c-0.951,1.292-2.182,2.629-3.344,3.349c-1.167,0.714-2.255,1.043-3.573,0.906c-1.322-0.146-2.967-0.944-4.28-1.741
	c-1.31-0.802-2.613-2.134-3.519-3.022c-0.904-0.884-1.052-1.187-1.878-2.244c-0.832-1.062-2.021-2.822-3.06-4.059
	c-1.037-1.232-2.076-2.344-3.114-3.27c-1.042-0.922-2.048-1.645-3.077-2.213l-0.025-0.026c-1.391,2.06-2.443,4.366-3.078,6.841
	c0.278,0.117,1.084,0.486,1.916,1.122c1.024,0.778,0.96,0.921,1.943,1.979c0.982,1.054,0.639,0.958,1.984,2.244
	s1.488,1.626,3.398,2.903c1.906,1.273,2.141,1.385,4.234,2.2c2.096,0.811,2.16,0.755,4.148,1.054
	c1.245,0.072,2.499,0.146,3.748,0.219c-0.749,0.532-1.227,0.738-2.426,1.279c-1.203,0.539-1.171,0.471-2.384,0.879
	s-1.677,0.527-2.471,0.75h0.087c0.046,0.221,0.087,0.326,0.795,0.568c0.707,0.244,0.785,0.431,2.029,0.398
	c1.25-0.035,1.047,0.221,2.958-0.526c1.906-0.751,2.646-1.521,4.676-2.468c2.03-0.945,1.687-0.881,3.44-1.32
	c1.755-0.439,2.384-0.439,3.573-0.439v-0.042c0.087-0.266,0.056-0.444-0.308-0.706c-0.363-0.266-0.275-0.297-1.148-0.352
	s-1.465,0.077-2.338,0.132c-0.872,0.056-0.726,0.097-1.144,0.087c-0.193-0.045-0.386-0.087-0.574-0.133
	c0.441-0.04,0.735-0.16,1.805-0.701c1.07-0.539,1.083-0.498,2.471-1.451c1.392-0.962,1.456-0.783,3.092-2.377
	c1.63-1.595,2.029-2.268,3.44-4.004c1.41-1.74,1.125-1.516,2.204-2.943c1.079-1.435,1.346-1.741,2.052-2.662
	C193.467,163.15,192.381,161.266,191.634,160.266z"/>
<path fill="#FFFFFF" d="M164.398,166.689v-5.596h2.916c0.415,0,0.75,0.334,0.75,0.747v4.849h-1.223V162.4
	c0-0.105-0.083-0.188-0.184-0.188h-0.848h-0.004c-0.102,0-0.185,0.083-0.185,0.188v4.289H164.398z"/>
<path fill="#FFFFFF" d="M176.611,163.145V162.4c0-0.105-0.083-0.188-0.189-0.188h-0.863c-0.106,0-0.193,0.083-0.193,0.188v0.744
	c0,0.105,0.087,0.188,0.193,0.188h0.863C176.528,163.332,176.611,163.25,176.611,163.145 M174.118,166.689v-4.849
	c0-0.413,0.345-0.747,0.768-0.747h2.222c0.423,0,0.768,0.334,0.768,0.747v4.849h-1.265v-2.051c0-0.105-0.083-0.188-0.188-0.188
	h-0.864c-0.106,0-0.193,0.083-0.193,0.188v2.051C175.365,166.689,174.118,166.689,174.118,166.689z"/>
<path fill="#FFFFFF" d="M181.542,163.145V162.4c0-0.105-0.087-0.188-0.193-0.188h-0.855c-0.106,0-0.188,0.083-0.188,0.188v0.744
	c0,0.105,0.082,0.188,0.188,0.188h0.855C181.455,163.332,181.542,163.25,181.542,163.145 M179.067,166.689v-4.849
	c0-0.413,0.341-0.747,0.759-0.747h2.189c0.423,0,0.764,0.334,0.764,0.747v4.849h-1.237v-2.051c0-0.105-0.087-0.188-0.193-0.188
	h-0.855c-0.105,0-0.188,0.083-0.188,0.188v2.051H179.067z"/>
<path fill="#FFFFFF" d="M172.26,161.094h-2.13c-0.409,0-0.741,0.334-0.741,0.742v0.005v4.092c0,0.408,0.332,0.743,0.741,0.743l0,0
	h2.13c0.409,0,0.739-0.335,0.739-0.743v-0.005v-4.092C173,161.428,172.669,161.094,172.26,161.094z M171.796,165.373
	c0,0.102-0.083,0.184-0.185,0.184h-0.832c-0.102,0-0.184-0.082-0.184-0.184v-2.977c0-0.102,0.082-0.188,0.184-0.188h0.832
	c0.102,0,0.185,0.087,0.185,0.188V165.373z"/>
</svg>
